<svg width="388" height="90" viewBox="0 0 388 90" fill="none" xmlns="http://www.w3.org/2000/svg">
<path d="M247.689 17.5321C247.946 19.7386 247.627 21.9735 246.764 24.0225C245.655 26.5942 243.898 28.8189 241.319 29.1251C238.74 29.4312 236.357 28.1556 234.343 26.1758C232.864 24.7063 230.634 21.8693 230.388 19.0833C230.172 16.7259 230.86 15.4299 232.155 13.6134C232.882 12.6787 233.793 11.8995 234.831 11.3225C235.869 10.7456 237.013 10.3828 238.196 10.2559C240.097 9.95446 242.046 10.2208 243.795 11.0213C246.939 12.2765 247.412 15.5013 247.689 17.5321Z" fill="#60478B"/>
<path d="M271.073 9.50051C270.762 11.7005 269.88 13.7823 268.515 15.5419C266.789 17.7564 264.529 19.4606 261.94 19.1443C259.351 18.8279 257.388 16.9604 255.95 14.5316C254.923 12.7355 253.464 9.42908 253.895 6.67371C254.286 4.34696 255.282 3.25502 256.977 1.82631C257.931 1.10077 259.022 0.574018 260.185 0.277656C261.349 -0.0187066 262.56 -0.0785691 263.748 0.10166C265.664 0.295396 267.48 1.04816 268.967 2.26513C271.69 4.26532 271.33 7.46971 271.073 9.50051Z" fill="#60478B"/>
<path d="M279.333 16.7153C278.358 18.7105 277.916 20.9207 278.048 23.1343C278.233 25.9407 279.148 28.6042 281.469 29.788C283.791 30.9717 286.463 30.5125 289.021 29.2981C290.911 28.4001 293.963 26.4611 295.185 23.9201C296.213 21.7668 295.956 20.3177 295.35 18.1746C294.972 17.0535 294.372 16.0189 293.585 15.132C292.798 14.2451 291.84 13.5238 290.767 13.0109C289.073 12.103 287.147 11.7124 285.23 11.8883C281.788 12.0312 280.278 14.8886 279.333 16.7153Z" fill="#60478B"/>
<path d="M47.9746 43.524L48.93 56.0149C48.9373 56.1235 48.984 56.2258 49.0614 56.3028C49.1389 56.3798 49.2419 56.4262 49.3513 56.4333C51.9916 56.5252 55.8546 55.6476 58.2279 56.6068C60.3649 57.4641 62.2142 58.4233 62.9744 61.1175C63.1388 61.7094 65.0292 67.016 61.382 69.455C58.4334 71.496 52.6903 71.945 49.9677 72.3532C49.9677 72.3532 50.5533 78.0885 50.7382 79.3641C51.1184 81.9562 50.9848 84.0482 49.7108 85.9566C48.7366 87.644 47.13 88.8802 45.2417 89.3957C43.2755 89.9676 41.2099 90.1206 39.1801 89.8447C37.1197 89.4296 35.237 88.3966 33.7863 86.8852C32.8411 85.7933 32.1836 82.9052 31.9781 80.2213L31.5877 73.3839C31.5877 73.3839 23.5843 74.1289 20.8926 74.4044C17.9542 74.7004 14.6666 75.1086 10.896 75.4249C9.30682 75.5746 7.705 75.3314 6.23331 74.7172C4.76162 74.1029 3.46575 73.1365 2.46118 71.9042C1.43185 70.7618 0.693172 69.3909 0.307059 67.9066C-0.0790532 66.4222 -0.101357 64.8675 0.242016 63.3728L7.56731 19.6748C7.78296 18.4979 8.33271 17.4068 9.1518 16.5299C9.97089 15.653 11.0252 15.0269 12.1906 14.7253C15.1286 14.104 18.1528 13.9936 21.1289 14.3987C24.8994 14.9192 25.7829 16.9092 25.6802 20.1748C25.4028 28.7981 20.5843 54.1168 19.6597 58.1988C19.6401 58.2656 19.6367 58.3361 19.65 58.4045C19.6632 58.4728 19.6926 58.5371 19.7358 58.5919C19.7789 58.6467 19.8346 58.6906 19.8982 58.7198C19.9618 58.7491 20.0314 58.7629 20.1015 58.7601L30.8582 57.9437C30.9739 57.9284 31.0787 57.8684 31.1499 57.7766C31.2212 57.6848 31.2529 57.5688 31.2384 57.4538L30.324 44.2689C30.1288 41.6666 29.9747 37.7581 31.5055 36.1049C32.6246 34.9629 34.0514 34.1657 35.6151 33.8087C37.4281 33.22 39.3624 33.1006 41.2349 33.4618C42.3078 33.5747 43.3413 33.9259 44.259 34.4894C45.1767 35.0529 45.955 35.8143 46.5362 36.7172C47.7485 38.6664 47.7691 40.8502 47.9746 43.524Z" fill="#60478B"/>
<path d="M99.0148 31.2473C94.2066 29.7063 94.258 29.2573 93.6929 29.8186C92.9738 30.5329 91.1039 36.9621 90.6108 40.3298C90.595 40.3953 90.5946 40.4635 90.6096 40.5292C90.6246 40.5948 90.6546 40.6562 90.6973 40.7085C90.74 40.7608 90.7943 40.8026 90.8559 40.8307C90.9175 40.8588 90.9848 40.8725 91.0525 40.8707C92.3573 40.789 95.7066 40.8707 96.8984 40.8707C101.193 40.7584 105.118 42.279 106.073 45.7589C106.802 48.2693 105.826 51.0961 104.717 53.178C103.042 56.3211 99.3949 57.1987 95.3573 56.7803C94.258 56.6681 91.8231 56.6171 90.6827 56.4538C90.6226 56.4427 90.5608 56.4455 90.502 56.4618C90.4431 56.4782 90.3888 56.5077 90.3432 56.548C90.2976 56.5884 90.2619 56.6386 90.2388 56.6948C90.2158 56.751 90.2059 56.8116 90.2101 56.8722C90.4566 61.8727 91.9977 68.659 93.4977 76.772C93.8403 78.7593 93.4304 80.8022 92.347 82.5073C91.9568 83.2076 91.4249 83.8203 90.7849 84.3068C90.1449 84.7932 89.4105 85.143 88.6279 85.3341C86.8925 85.9463 85.0528 86.2133 83.2135 86.1199C81.5415 86.1774 79.9114 85.5926 78.6622 84.487C77.0965 82.9774 76.0748 80.9978 75.7547 78.8539C74.2241 71.0818 73.3001 63.2038 72.991 55.2904C72.991 55.0659 72.8061 55.5149 72.5801 55.5047C69.694 55.3668 66.88 54.5632 64.3609 53.1575C62.4397 51.6574 62.0493 49.7797 62.1212 47.606C62.107 45.4073 62.9458 43.2876 64.4637 41.6871C66.1486 39.942 69.8061 39.7583 73.2581 39.9726C73.3636 39.9818 73.4687 39.9512 73.5524 39.8869C73.6362 39.8226 73.6925 39.7293 73.7102 39.6256C75.0561 31.4616 78.3334 23.3894 83.5423 19.4094C88.7512 15.4295 95.6141 14.4702 103.525 16.3479C105.359 16.6236 107.034 17.5389 108.251 18.9298C108.909 19.6207 109.422 20.4351 109.759 21.3253C110.096 22.2155 110.25 23.1636 110.213 24.114C110.192 25.8845 109.688 27.6163 108.754 29.1246C107.936 30.362 106.677 31.2474 105.231 31.6045C103.169 32.1047 101.004 31.9803 99.0148 31.2473V31.2473Z" fill="#60478B"/>
<path d="M114.458 74.9659C113.373 69.2367 112.687 63.4401 112.403 57.6173C112.189 52.8531 112.887 48.0919 114.458 43.5854C115.876 39.2334 118.659 35.4464 122.399 32.7783C128.632 28.4717 135.824 28.2914 143.974 32.2374C145.791 33.0708 147.357 34.362 148.516 35.9826C149.944 37.891 151.598 41.1668 149.44 44.7182C145.105 51.9229 137.974 49.6574 136.084 48.2593C133.855 46.5755 132.642 45.8305 131.338 46.3918C128.605 47.5756 128.995 56.6785 131.728 71.7615C132.098 74.0985 132.683 77.2417 131.173 79.099C130.333 80.2665 129.164 81.1613 127.814 81.6706C126.084 82.3099 124.244 82.6046 122.399 82.5381C120.484 82.4754 118.657 81.7206 117.262 80.4154C115.715 78.9801 114.723 77.0521 114.458 74.9659V74.9659Z" fill="#60478B"/>
<path d="M174.611 35.9009L174.868 53.2495C174.929 55.2905 175.114 57.5254 175.166 60.0563C175.217 62.5871 175.248 64.6894 175.268 66.3834C175.289 68.0774 175.32 69.4449 175.35 70.5573C175.436 71.88 175.228 73.2052 174.741 74.4395C174.255 75.6738 173.502 76.787 172.535 77.7008C170.827 79.3649 168.557 80.3395 166.166 80.4358C164.899 80.4515 163.643 80.2126 162.472 79.7334C161.301 79.2543 160.24 78.5449 159.352 77.6478C158.464 76.7507 157.768 75.6845 157.306 74.5133C156.844 73.3421 156.625 72.0902 156.662 70.8328C156.662 69.7307 156.601 68.3326 156.58 66.6487C156.559 64.9649 156.518 62.8729 156.477 60.3828C156.436 57.8928 156.241 55.6375 156.179 53.6271L155.922 36.2785C155.864 34.9804 156.076 33.6843 156.545 32.4711C157.013 31.2579 157.728 30.1535 158.645 29.2268C159.461 28.3406 160.447 27.6254 161.545 27.1233C162.643 26.6213 163.831 26.3426 165.039 26.3036C166.247 26.2646 167.451 26.4661 168.58 26.8963C169.708 27.3265 170.739 27.9766 171.611 28.8084C172.629 29.6793 173.431 30.7732 173.951 32.004C174.472 33.2347 174.697 34.5687 174.611 35.9009V35.9009Z" fill="#60478B"/>
<path d="M341.398 23.6445C341.685 30.7881 342.189 33.176 340.822 52.2187C340.617 55.0557 340.134 59.4745 339.548 65.4852C338.963 71.496 338.418 76.2005 338.151 78.5681C337.812 81.5786 336.589 83.0481 334.041 84.7524C329.596 87.5077 322.983 87.637 314.203 85.1402C308.103 83.3422 302.81 79.5157 299.213 74.3024C295.707 69.5726 294.063 63.7327 294.59 57.8825C295.275 50.7185 298.326 45.133 303.744 41.1258C309.161 37.1186 315.576 35.7783 322.987 37.105C323.044 37.1151 323.103 37.1136 323.16 37.1004C323.217 37.0872 323.271 37.0627 323.318 37.0284C323.365 36.994 323.404 36.9506 323.434 36.9006C323.464 36.8506 323.483 36.7952 323.49 36.7376C323.49 36.7376 323.49 31.8698 323.233 26.8081C323.131 24.5732 322.422 18.3073 323.983 16.7765C325.756 15.3174 327.921 14.4057 330.209 14.1538C332.234 13.9216 334.284 14.0565 336.261 14.5518C337.889 15.0117 339.269 16.0895 340.103 17.5521C341.243 19.2053 341.285 20.9504 341.398 23.6445ZM320.85 72.4859C320.85 72.4859 321.497 69.4244 321.959 65.7914C322.37 62.5054 322.679 58.6479 322.72 57.5253C322.822 54.3923 322.72 51.29 322.72 51.29C322.735 51.1756 322.707 51.0596 322.64 50.9651C322.574 50.8705 322.474 50.8044 322.36 50.7798C318.733 50.1368 314.059 51.5247 312.086 55.6986C310.927 58.2278 310.698 61.0809 311.439 63.7606C312.939 69.3223 317.891 72.0063 320.254 72.8635C320.318 72.8853 320.387 72.8925 320.454 72.8845C320.521 72.8765 320.586 72.8535 320.643 72.8172C320.701 72.7809 320.749 72.7323 320.785 72.675C320.82 72.6176 320.843 72.553 320.85 72.4859Z" fill="#60478B"/>
<path d="M374.222 56.8422L371.14 55.5972C368.848 54.5767 365.366 53.0664 364.842 54.7604C364.225 56.8014 366.712 57.7301 367.872 58.373C369.367 59.1489 370.924 59.8009 372.527 60.3222C374.468 60.9957 376.8 61.557 378.763 62.3632C380.865 63.2108 382.797 64.4276 384.465 65.9553C386.046 67.442 387.15 69.3589 387.639 71.4661C388.194 73.6976 387.852 76.3271 386.612 79.3546C385.043 83.1417 382.072 86.1875 378.311 87.8656C374.402 89.6677 370.065 90.3499 365.787 89.8352C361.146 89.3097 356.594 88.1844 352.246 86.4879C348.506 84.9776 346.592 82.5964 346.503 79.3444C346.4 78.098 346.653 76.8482 347.233 75.7382C347.812 74.6281 348.695 73.7028 349.78 73.0683C352.03 71.6089 354.516 71.9355 357.414 73.1295C359.894 74.1244 362.433 74.9696 365.016 75.6603C367.184 76.2114 369.825 76.8543 370.287 75.0072C370.677 73.4663 368.551 72.2621 367.41 71.6906C365.918 70.983 364.368 70.4026 362.777 69.9557C360.356 69.3284 357.984 68.5303 355.677 67.5677C353.623 66.5472 352.153 66.2819 350.602 64.7614C348.991 63.1152 347.948 61.0033 347.623 58.7302C347.257 55.697 347.736 52.6223 349.01 49.8416C350.43 46.1664 353.049 43.0696 356.448 41.0448C359.861 39.1535 363.761 38.3084 367.657 38.616C372.233 38.7319 376.744 39.712 380.951 41.504C381.979 41.9735 388.667 44.3921 387.609 50.4233C387.376 52.288 386.572 54.0369 385.307 55.4339C383.713 56.8904 381.628 57.7021 379.461 57.7097C377.679 57.709 375.908 57.4159 374.222 56.8422V56.8422Z" fill="#60478B"/>
<path d="M238.257 73.8738C236.592 65.5159 236.202 62.0258 236.695 56.5967C237.025 51.6797 238.262 46.8648 240.342 42.3913C242.026 38.5032 244.902 35.2425 248.562 33.074C252.503 30.6975 257.094 29.6056 261.692 29.9513C267.147 30.1656 272.993 31.2575 276.959 33.8802C280.819 36.3566 283.787 39.9875 285.435 44.2486C289.257 53.7903 286.37 69.0673 284.849 74.6698C283.596 83.1094 277.75 83.6299 275.818 83.4972C271.061 83.191 268.452 80.6398 267.784 79.2825C267.116 77.9252 267.024 76.1087 267.188 73.8024C267.353 71.4961 267.548 69.7204 267.599 68.6488C267.917 64.9145 267.938 61.1609 267.661 57.4233C267.25 51.3003 264.877 47.8101 262.051 47.6979C259.226 47.5856 256.133 50.688 255.435 56.5457C254.82 61.9684 254.761 67.4392 255.26 72.8737C255.496 75.0882 255.609 77.9763 254.387 79.5785C251.962 82.7726 248.038 82.242 246.075 82.0175C244.104 81.7913 242.272 80.8975 240.887 79.4866C239.446 77.9313 238.527 75.9701 238.257 73.8738Z" fill="#60478B"/>
<path d="M205.864 63.7204C205.789 63.7546 205.726 63.812 205.685 63.8841C205.645 63.9563 205.628 64.0395 205.639 64.1216C205.649 64.2036 205.685 64.2803 205.743 64.3403C205.8 64.4003 205.875 64.4405 205.957 64.4552C208.844 64.7715 214.597 65.4757 218.07 65.292C220.608 65.1389 226.854 64.0878 229.926 66.9554C231.714 68.6188 231.292 72.4253 230.306 74.6908C229.32 76.9563 227.707 78.8341 222.95 79.7933C213.56 81.3445 202.197 78.5177 196.998 76.5073C189.806 73.7213 186.416 70.0271 183.745 63.3734C181.383 57.1947 181.452 50.3587 183.94 44.2287C186.395 38.3404 190.618 33.1869 196.68 30.9622C200.193 29.5482 203.97 28.8986 207.758 29.057C211.545 29.2155 215.254 30.1783 218.635 31.8806C225.066 34.9421 228.292 39.7691 227.83 46.9535C227.265 56.1584 218.245 59.4955 205.864 63.7204ZM196.741 53.3316C196.741 53.6582 196.988 53.8827 197.317 53.8113C199.885 53.2908 211.227 49.6068 212.429 45.8207C212.622 45.1377 212.656 44.4204 212.531 43.7221C212.406 43.0239 212.125 42.3625 211.707 41.7872C211.29 41.2118 210.747 40.7371 210.12 40.3984C209.493 40.0596 208.797 39.8655 208.084 39.8304C204.947 39.8142 201.925 41.0025 199.649 43.147C196.505 46.0044 196.371 50.2293 196.741 53.3316Z" fill="#60478B"/>
<path d="M174.005 10.0213C173.694 12.3635 172.777 14.5856 171.344 16.4709C169.556 18.8589 167.142 20.6958 164.419 20.4406C161.697 20.1855 159.55 18.1649 157.998 15.5932C156.858 13.6951 155.286 10.1948 155.759 7.25572C156.149 4.76569 157.197 3.60231 159.005 2.06135C159.992 1.27984 161.128 0.703631 162.344 0.367017C163.56 0.0304037 164.832 -0.0597302 166.084 0.101981C168.126 0.277412 170.069 1.05575 171.663 2.33689C174.591 4.42892 174.241 7.84761 174.005 10.0213Z" fill="#60478B"/>
</svg>
