<svg width="64" height="64" viewBox="0 0 64 64" fill="none" xmlns="http://www.w3.org/2000/svg">
<rect width="64" height="64" rx="10.6667" fill="white" fill-opacity="0.6"/>
<path d="M36.375 34.8125H33.5625V32C33.5625 31.8342 33.4967 31.6753 33.3794 31.5581C33.2622 31.4408 33.1033 31.375 32.9375 31.375H29.8125C29.6467 31.375 29.4878 31.4408 29.3706 31.5581C29.2533 31.6753 29.1875 31.8342 29.1875 32V34.8125H26.375C26.2092 34.8125 26.0503 34.8783 25.9331 34.9956C25.8158 35.1128 25.75 35.2717 25.75 35.4375V38.5625C25.75 38.7283 25.8158 38.8872 25.9331 39.0044C26.0503 39.1217 26.2092 39.1875 26.375 39.1875H29.1875V42C29.1875 42.1658 29.2533 42.3247 29.3706 42.4419C29.4878 42.5592 29.6467 42.625 29.8125 42.625H32.9375C33.1033 42.625 33.2622 42.5592 33.3794 42.4419C33.4967 42.3247 33.5625 42.1658 33.5625 42V39.1875H36.375C36.5408 39.1875 36.6997 39.1217 36.8169 39.0044C36.9342 38.8872 37 38.7283 37 38.5625V35.4375C37 35.2717 36.9342 35.1128 36.8169 34.9956C36.6997 34.8783 36.5408 34.8125 36.375 34.8125ZM35.75 37.9375H32.9375C32.7717 37.9375 32.6128 38.0033 32.4956 38.1206C32.3783 38.2378 32.3125 38.3967 32.3125 38.5625V41.375H30.4375V38.5625C30.4375 38.3967 30.3717 38.2378 30.2544 38.1206C30.1372 38.0033 29.9783 37.9375 29.8125 37.9375H27V36.0625H29.8125C29.9783 36.0625 30.1372 35.9967 30.2544 35.8794C30.3717 35.7622 30.4375 35.6033 30.4375 35.4375V32.625H32.3125V35.4375C32.3125 35.6033 32.3783 35.7622 32.4956 35.8794C32.6128 35.9967 32.7717 36.0625 32.9375 36.0625H35.75V37.9375Z" fill="#9270CB"/>
<path d="M54.47 43.9075L47.3988 36.8363C46.6259 36.0644 45.5913 35.6111 44.5 35.5662V27C44.498 25.9491 44.1181 24.9339 43.4296 24.1399C42.7411 23.3458 41.7901 22.8259 40.75 22.675V18.875C41.2473 18.875 41.7242 18.6775 42.0758 18.3258C42.4275 17.9742 42.625 17.4973 42.625 17V14.5C42.625 14.0027 42.4275 13.5258 42.0758 13.1742C41.7242 12.8225 41.2473 12.625 40.75 12.625H22C21.5027 12.625 21.0258 12.8225 20.6742 13.1742C20.3225 13.5258 20.125 14.0027 20.125 14.5V17C20.125 17.4973 20.3225 17.9742 20.6742 18.3258C21.0258 18.6775 21.5027 18.875 22 18.875V22.675C20.9596 22.8252 20.0081 23.3449 19.3195 24.1391C18.6309 24.9333 18.2512 25.9488 18.25 27V47C18.2513 48.1599 18.7127 49.2719 19.5329 50.0921C20.3531 50.9123 21.4651 51.3737 22.625 51.375H40.125C40.7463 51.3721 41.3599 51.237 41.925 50.9788C42.9184 51.4003 44.0215 51.4888 45.0694 51.2309C46.1172 50.973 47.0533 50.3826 47.7375 49.5481L48.2844 50.095C49.1049 50.9155 50.2177 51.3765 51.3781 51.3765C52.5385 51.3765 53.6514 50.9155 54.4719 50.095C55.2924 49.2745 55.7533 48.1616 55.7533 47.0013C55.7533 45.8409 55.2924 44.728 54.4719 43.9075H54.47ZM21.375 17V14.5C21.375 14.3342 21.4408 14.1753 21.5581 14.0581C21.6753 13.9408 21.8342 13.875 22 13.875H40.75C40.9158 13.875 41.0747 13.9408 41.1919 14.0581C41.3092 14.1753 41.375 14.3342 41.375 14.5V17C41.375 17.1658 41.3092 17.3247 41.1919 17.4419C41.0747 17.5592 40.9158 17.625 40.75 17.625H22C21.8342 17.625 21.6753 17.5592 21.5581 17.4419C21.4408 17.3247 21.375 17.1658 21.375 17ZM39.5 18.875V22.625H23.25V18.875H39.5ZM19.5 27C19.501 26.1715 19.8306 25.3772 20.4164 24.7914C21.0022 24.2056 21.7965 23.876 22.625 23.875H40.125C40.9535 23.876 41.7478 24.2056 42.3336 24.7914C42.9195 25.3772 43.249 26.1715 43.25 27V28.875H19.5V27ZM19.5 30.125H43.25V35.6906C42.5562 35.8606 41.9149 36.1986 41.3824 36.6747C40.8499 37.1508 40.4426 37.7505 40.1964 38.421C39.9501 39.0915 39.8724 39.8123 39.9702 40.5198C40.0679 41.2274 40.3381 41.9001 40.7569 42.4787C40.2728 42.8663 39.8641 43.3396 39.5513 43.875H19.5V30.125ZM40.125 50.125H22.625C21.7965 50.124 21.0022 49.7944 20.4164 49.2086C19.8306 48.6228 19.501 47.8285 19.5 47V45.125H39.0394C38.8049 46.0116 38.8216 46.946 39.0876 47.8236C39.3536 48.7013 39.8584 49.4877 40.5456 50.095C40.4062 50.1144 40.2657 50.1244 40.125 50.125ZM43.25 50.0687C42.3766 49.9219 41.5835 49.4702 41.0115 48.794C40.4395 48.1177 40.1256 47.2607 40.1256 46.375C40.1256 45.4893 40.4395 44.6323 41.0115 43.956C41.5835 43.2798 42.3766 42.8281 43.25 42.6812V50.0687ZM44.5 50.0687V42.6812C45.3734 42.8281 46.1666 43.2798 46.7386 43.956C47.3105 44.6323 47.6244 45.4893 47.6244 46.375C47.6244 47.2607 47.3105 48.1177 46.7386 48.794C46.1666 49.4702 45.3734 49.9219 44.5 50.0687ZM47.4906 42.9313C46.7813 42.1792 45.8546 41.6677 44.8402 41.4682C43.8258 41.2687 42.7744 41.3913 41.8331 41.8187C41.3508 41.1904 41.1257 40.402 41.2037 39.6137C41.2816 38.8255 41.6567 38.0964 42.2527 37.5747C42.8488 37.053 43.6211 36.7777 44.4127 36.8048C45.2044 36.8319 45.956 37.1594 46.515 37.7206L49.6081 40.8125L47.4906 42.9313ZM53.5856 49.2106C52.9996 49.7967 52.2047 50.1259 51.3759 50.1259C50.5471 50.1259 49.7523 49.7967 49.1663 49.2106L48.4163 48.4606C48.7466 47.7487 48.9032 46.9686 48.8733 46.1843C48.8434 45.4001 48.6279 44.6341 48.2444 43.9494L50.4944 41.6994L53.5875 44.7925C54.1729 45.3787 54.5016 46.1735 54.5012 47.0019C54.5009 47.8304 54.1715 48.6249 53.5856 49.2106Z" fill="#9270CB"/>
</svg>
