<svg width="64" height="64" viewBox="0 0 64 64" fill="none" xmlns="http://www.w3.org/2000/svg">
<rect width="64" height="64" rx="10.6667" fill="white" fill-opacity="0.6"/>
<path d="M46.8455 17.3519C45.2398 15.4381 43.1148 14.1263 40.7036 13.56C39.8561 13.3544 38.963 13.25 38.0492 13.25C31.7048 13.25 26.543 18.4081 26.543 24.7481C26.543 24.99 26.5517 25.23 26.5661 25.4694C26.6067 26.1306 26.7017 26.78 26.8517 27.4069V27.4081V27.4094C26.9217 27.7063 27.0042 28.0006 27.098 28.29C27.758 30.3256 28.9955 32.1687 30.6423 33.55H30.6436C30.6436 33.55 30.6436 33.5512 30.6442 33.5512C32.7061 35.2937 35.3355 36.2531 38.048 36.2531C44.388 36.2531 49.5455 31.0919 49.5455 24.7469C49.5455 22.0387 48.5855 19.4106 46.8436 17.3506L46.8455 17.3519ZM31.2686 32.43C31.1905 32.3612 31.113 32.2906 31.0373 32.2194C30.9473 32.135 30.8567 32.0519 30.7698 31.9644C30.6667 31.8606 30.5686 31.7519 30.4705 31.6437C30.3886 31.5538 30.3055 31.465 30.2267 31.3725C30.1311 31.26 30.0417 31.1425 29.9511 31.0262C29.8773 30.9312 29.8017 30.8375 29.7311 30.74C29.6442 30.6194 29.5636 30.4937 29.4817 30.3694C29.4167 30.27 29.3486 30.1731 29.2867 30.0712C29.2073 29.9412 29.1361 29.8069 29.0623 29.6737C29.0067 29.5731 28.948 29.4738 28.8961 29.3713C28.8242 29.2294 28.7611 29.0838 28.6955 28.9394C28.6511 28.8406 28.6023 28.7431 28.5605 28.6431C28.4942 28.4819 28.4373 28.3169 28.3792 28.1525C28.3686 28.1225 28.3573 28.0938 28.3467 28.0637C28.878 28.1388 29.4217 28.1812 29.9755 28.1812C36.3155 28.1812 41.473 23.0238 41.473 16.6837C41.473 16.1287 41.4305 15.5844 41.3548 15.0519C41.3861 15.0625 41.4161 15.0744 41.4467 15.085C41.6142 15.1437 41.7823 15.2006 41.9455 15.2675C42.0442 15.3081 42.1392 15.3556 42.2361 15.3988C42.3823 15.4638 42.5292 15.5275 42.6723 15.6C42.7723 15.6506 42.8686 15.7081 42.9667 15.7619C43.1017 15.8356 43.2373 15.9081 43.3686 15.9881C43.4667 16.0481 43.5611 16.1137 43.6573 16.1769C43.7836 16.26 43.9105 16.3412 44.033 16.43C44.128 16.4987 44.2186 16.5725 44.3111 16.645C44.4292 16.7369 44.548 16.8281 44.6623 16.9256C44.753 17.0025 44.8398 17.085 44.9273 17.165C45.0373 17.2656 45.148 17.3662 45.2542 17.4725C45.3398 17.5581 45.4223 17.6481 45.5055 17.7369C45.5786 17.815 45.6511 17.8944 45.7223 17.9756C45.1011 25.6613 38.9517 31.81 31.2673 32.4312L31.2686 32.43ZM38.0498 14.5C38.4273 14.5 38.7986 14.5244 39.1655 14.5638C39.2811 14.5763 39.393 14.5975 39.5073 14.6138C39.6855 14.6394 39.8605 14.6725 40.0348 14.7075C40.1598 15.3412 40.2236 16.0038 40.2236 16.6819C40.2236 22.3325 35.6267 26.9294 29.9761 26.9294C29.298 26.9294 28.6361 26.865 28.0017 26.7406C27.9667 26.5656 27.9336 26.39 27.9086 26.2113C27.8923 26.095 27.8705 25.9806 27.858 25.8631C27.8186 25.4956 27.7942 25.1231 27.7942 24.7469C27.7942 19.0956 32.3948 14.4987 38.0505 14.4987L38.0498 14.5ZM38.0498 35.0044C36.1623 35.0044 34.3242 34.4769 32.7323 33.5094C39.9317 32.3375 45.6311 26.6381 46.803 19.4381C47.7705 21.0281 48.2973 22.8644 48.2973 24.7481C48.2973 30.4031 43.7005 35.0044 38.0498 35.0044Z" fill="#9270CB"/>
<path d="M15.2403 32.9464C13.8959 34.807 14.3159 37.4151 16.1771 38.7595C17.8496 39.9683 20.0859 39.7708 21.5153 38.3695L30.3746 44.7708C29.4934 46.5676 30.0084 48.7526 31.6809 49.9614C32.4165 50.4933 33.269 50.7483 34.1134 50.7483C35.4059 50.7483 36.6809 50.1495 37.494 49.0245C38.109 48.1739 38.3728 47.1464 38.2546 46.1226C39.2634 45.9133 40.1559 45.3401 40.7703 44.4895C41.4215 43.5883 41.6828 42.4864 41.5059 41.3889C41.329 40.2914 40.7353 39.3276 39.8334 38.6764C38.1609 37.4683 35.9253 37.6651 34.4953 39.0664L25.6359 32.6658C26.5171 30.8689 26.0021 28.6839 24.3296 27.4751C23.4284 26.8239 22.329 26.5626 21.229 26.7395C20.1309 26.9164 19.1678 27.5101 18.5165 28.412C17.9015 29.2633 17.6378 30.2901 17.7559 31.3139C16.7471 31.5233 15.8546 32.0958 15.2396 32.947L15.2403 32.9464ZM18.5221 32.4764C18.7159 32.4701 18.8953 32.3745 19.0084 32.2176C19.1215 32.0608 19.1559 31.8608 19.1009 31.6751C18.8434 30.8008 18.9996 29.8783 19.5303 29.1439C20.4709 27.8414 22.2953 27.547 23.5984 28.4889C24.8859 29.4189 25.1921 31.1764 24.2965 32.4895C24.1059 32.7695 24.1721 33.1501 24.4471 33.3483L34.2221 40.4108C34.4953 40.6083 34.8784 40.5526 35.0846 40.2839C36.0496 39.0201 37.8146 38.7595 39.1021 39.6901C39.7334 40.1458 40.149 40.8201 40.2728 41.5889C40.3965 42.357 40.214 43.1276 39.7578 43.7589C39.2271 44.4926 38.4009 44.9308 37.4896 44.9608C37.2959 44.967 37.1165 45.0626 37.0034 45.2195C36.8903 45.3764 36.8559 45.577 36.9103 45.7626C37.1684 46.637 37.0115 47.5601 36.4809 48.2945C35.5396 49.5964 33.7153 49.8901 32.4128 48.9495C31.1253 48.0195 30.819 46.262 31.7146 44.9489C31.9053 44.6695 31.839 44.2883 31.564 44.0901L21.7884 37.0276C21.6778 36.9476 21.5503 36.9095 21.4228 36.9095C21.2346 36.9095 21.0484 36.9945 20.9259 37.1551C19.9603 38.4176 18.1953 38.6789 16.9084 37.7489C15.6065 36.8083 15.3121 34.9826 16.2528 33.6808C16.7834 32.9464 17.6103 32.5083 18.5215 32.4783L18.5221 32.4764Z" fill="#9270CB"/>
</svg>
