<svg width="64" height="64" viewBox="0 0 64 64" fill="none" xmlns="http://www.w3.org/2000/svg">
<rect width="64" height="64" rx="10.6667" fill="white" fill-opacity="0.6"/>
<path fill-rule="evenodd" clip-rule="evenodd" d="M35.3899 41.815C34.5913 41.815 33.8147 41.5415 33.1364 41.0055C32.8192 40.7539 32.4363 40.6226 32.0425 40.6226C31.6487 40.6226 31.2658 40.7648 30.9486 41.0055C29.5046 42.1432 27.6341 42.0775 26.0807 40.8195C25.8729 40.6445 25.6213 40.3492 25.479 40.1085C24.6149 38.5661 24.4508 36.8158 25.0415 35.3062C25.5337 34.0592 26.4636 33.1293 27.6122 32.7574C27.9294 32.6589 28.181 32.4073 28.2795 32.0901C28.8483 30.2633 30.3688 29.0381 32.0535 29.0381C33.7381 29.0381 35.2477 30.2633 35.8275 32.0901C35.9259 32.4073 36.1775 32.6589 36.4948 32.7574C37.6434 33.1293 38.5732 34.0592 39.0655 35.3062C39.6562 36.8158 39.4921 38.5661 38.6279 40.1085C38.4857 40.3492 38.2341 40.6555 38.0262 40.8195C37.1839 41.4868 36.276 41.815 35.3899 41.815ZM32.0425 39.3646C32.7208 39.3646 33.3771 39.5944 33.9241 40.021C34.9086 40.7977 36.1119 40.732 37.2167 39.846C37.2933 39.7803 37.4465 39.6053 37.5121 39.4959C38.1903 38.2926 38.3325 36.9361 37.8731 35.7766C37.523 34.8796 36.8667 34.2232 36.09 33.9607C35.379 33.731 34.832 33.1731 34.6023 32.473C34.1975 31.1822 33.1693 30.307 32.0316 30.307C30.9049 30.307 29.8656 31.1822 29.4609 32.473C29.2421 33.184 28.6842 33.7419 27.9732 33.9607C27.1855 34.2123 26.5401 34.8686 26.1901 35.7766C25.7416 36.9361 25.8729 38.2926 26.5511 39.4959C26.6167 39.6053 26.7699 39.7803 26.8464 39.846C27.4371 40.3273 28.0607 40.5679 28.6623 40.5679C29.1765 40.5679 29.6906 40.3929 30.1391 40.021C30.697 39.5944 31.3643 39.3646 32.0425 39.3646Z" fill="#9270CB"/>
<path fill-rule="evenodd" clip-rule="evenodd" d="M38.746 31.7627C38.7351 31.7627 38.7242 31.7627 38.7242 31.7627C37.9584 31.7517 37.3021 31.4454 36.9301 30.8985C36.5473 30.3515 36.4816 29.6295 36.7442 28.9076C36.9848 28.2512 37.4662 27.6495 38.1116 27.201C38.757 26.7525 39.4899 26.5119 40.19 26.5228C40.9557 26.5338 41.6121 26.8401 41.984 27.387C42.3669 27.934 42.4325 28.656 42.17 29.3779C41.9293 30.0343 41.448 30.6359 40.8026 31.0844C40.1572 31.522 39.4352 31.7627 38.746 31.7627ZM40.1572 27.7808C39.7306 27.7808 39.2492 27.9449 38.8226 28.2403C37.9475 28.8529 37.6631 29.7499 37.9584 30.1765C38.1553 30.45 38.5272 30.4937 38.7351 30.5047H38.746C39.1727 30.5047 39.654 30.3406 40.0806 30.0452C40.9557 29.4326 41.2402 28.5356 40.9448 28.109C40.7479 27.8355 40.376 27.7918 40.1681 27.7808H40.1572Z" fill="#9270CB"/>
<path fill-rule="evenodd" clip-rule="evenodd" d="M34.5389 28.3161C34.2545 28.3161 33.981 28.2614 33.7294 28.1411C33.1278 27.8567 32.7121 27.266 32.5808 26.5112C32.4605 25.822 32.5808 25.0563 32.909 24.3562C33.2372 23.6451 33.7622 23.0763 34.3639 22.7262C35.0312 22.3543 35.7532 22.2996 36.3548 22.5731C36.9565 22.8575 37.3722 23.4482 37.5034 24.203C37.6238 24.8922 37.5034 25.6579 37.1752 26.358C36.8471 27.0691 36.322 27.6379 35.7203 27.988C35.3265 28.2067 34.9218 28.3161 34.5389 28.3161ZM35.5344 23.6561C35.3156 23.6561 35.1077 23.7545 34.9874 23.8202C34.6155 24.028 34.2764 24.4218 34.0576 24.8922C33.8388 25.3626 33.7513 25.8658 33.8279 26.2924C33.8607 26.5002 33.9701 26.8612 34.2764 27.0034C34.3529 27.0472 34.4514 27.0581 34.5499 27.0581C35.0202 27.0581 35.6656 26.6315 36.0376 25.833C36.2564 25.3626 36.3439 24.8594 36.2673 24.4327C36.2345 24.2249 36.1251 23.8639 35.8188 23.7217C35.7203 23.667 35.6219 23.6561 35.5344 23.6561Z" fill="#9270CB"/>
<path fill-rule="evenodd" clip-rule="evenodd" d="M25.3251 31.7627C24.636 31.7627 23.914 31.522 23.2795 31.0844C22.6341 30.6359 22.1528 30.0343 21.9121 29.3779C21.6496 28.6559 21.7152 27.934 22.0981 27.387C22.481 26.84 23.1264 26.5228 23.8921 26.5228C24.5813 26.5119 25.3251 26.7635 25.9706 27.201C26.616 27.6495 27.0973 28.2512 27.338 28.9075C27.6005 29.6295 27.5349 30.3515 27.152 30.8985C26.7691 31.4454 26.1237 31.7627 25.358 31.7627C25.347 31.7627 25.3361 31.7627 25.3251 31.7627ZM23.914 27.7808H23.9031C23.6952 27.7808 23.3233 27.8246 23.1264 28.109C22.9295 28.3825 23.0279 28.7544 23.0936 28.9404C23.2358 29.3451 23.5639 29.7499 23.9906 30.0343C24.8657 30.6469 25.8065 30.5922 26.1018 30.1655C26.3972 29.7389 26.1128 28.8419 25.2376 28.2293C24.8219 27.9449 24.3406 27.7808 23.914 27.7808Z" fill="#9270CB"/>
<path fill-rule="evenodd" clip-rule="evenodd" d="M29.5383 28.3163C29.1554 28.3163 28.7507 28.2069 28.3678 27.9882C27.7661 27.649 27.252 27.0693 26.9129 26.3582C26.5847 25.6472 26.4644 24.8814 26.5847 24.2032C26.716 23.4484 27.1317 22.8577 27.7333 22.5733C28.335 22.2889 29.057 22.3436 29.7242 22.7264C30.3259 23.0655 30.84 23.6453 31.1792 24.3564C31.5073 25.0674 31.6277 25.8331 31.5073 26.5114C31.3761 27.2662 30.9604 27.8569 30.3587 28.1413C30.1071 28.2616 29.8227 28.3163 29.5383 28.3163ZM28.5538 23.6563C28.4662 23.6563 28.3678 23.6781 28.2693 23.7109C27.963 23.8532 27.8537 24.2141 27.8208 24.422C27.7443 24.8486 27.8318 25.3518 28.0506 25.8222C28.2693 26.2926 28.6085 26.6755 28.9804 26.8942C29.1554 26.9927 29.5055 27.1458 29.8118 27.0036C30.2821 26.7848 30.49 25.866 30.0305 24.8924C29.8118 24.422 29.4726 24.0391 29.1007 23.8203C28.9804 23.7438 28.7725 23.6563 28.5538 23.6563Z" fill="#9270CB"/>
<path fill-rule="evenodd" clip-rule="evenodd" d="M19.0017 48.8383C18.8923 48.8383 18.7939 48.8165 18.6954 48.7618C18.3891 48.5867 18.2798 48.2039 18.4548 47.9085C19.3409 46.3442 19.5815 44.5174 19.1439 42.778C18.2688 39.2994 17.8203 35.7114 17.8203 32.1233C17.8203 28.5353 18.2688 24.9473 19.1439 21.4686C19.5815 19.7293 19.3409 17.9024 18.4548 16.3382C18.2798 16.0319 18.3891 15.649 18.6954 15.4849C19.0017 15.3099 19.3846 15.4193 19.5487 15.7256C20.5879 17.5743 20.8833 19.7293 20.3582 21.7858C18.6517 28.5572 18.6517 35.7114 20.3582 42.4827C20.8723 44.5393 20.5879 46.6943 19.5487 48.543C19.4284 48.718 19.2205 48.8383 19.0017 48.8383Z" fill="#9270CB"/>
<path fill-rule="evenodd" clip-rule="evenodd" d="M45.0837 48.8378C44.8649 48.8378 44.6461 48.7174 44.5368 48.5205C43.4975 46.6718 43.2022 44.5168 43.7273 42.4602C45.4338 35.6889 45.4338 28.5347 43.7273 21.7634C43.2131 19.7068 43.4975 17.5518 44.5368 15.7031C44.7118 15.3968 45.0947 15.2874 45.39 15.4624C45.6963 15.6375 45.8057 16.0203 45.6307 16.3157C44.7446 17.88 44.5039 19.7068 44.9415 21.4461C45.8166 24.9248 46.2651 28.5128 46.2651 32.1009C46.2651 35.6889 45.8166 39.2769 44.9415 42.7556C44.5039 44.4949 44.7446 46.3217 45.6307 47.886C45.8057 48.1923 45.6963 48.5752 45.39 48.7393C45.2916 48.8159 45.1822 48.8378 45.0837 48.8378Z" fill="#9270CB"/>
<path fill-rule="evenodd" clip-rule="evenodd" d="M45.0806 16.6333H19.0017C18.6516 16.6333 18.3672 16.3489 18.3672 15.9989V12.5749C18.3672 12.2248 18.6516 11.9404 19.0017 11.9404H45.0806C45.4306 11.9404 45.715 12.2248 45.715 12.5749V16.0098C45.7041 16.3489 45.4197 16.6333 45.0806 16.6333ZM19.6252 15.3753H44.4461V13.1984H19.6252V15.3753Z" fill="#9270CB"/>
<path fill-rule="evenodd" clip-rule="evenodd" d="M45.0806 52.2732H19.0017C18.6516 52.2732 18.3672 51.9887 18.3672 51.6387V48.2038C18.3672 47.8538 18.6516 47.5693 19.0017 47.5693H45.0806C45.4306 47.5693 45.715 47.8538 45.715 48.2038V51.6387C45.7041 51.9887 45.4197 52.2732 45.0806 52.2732ZM19.6252 51.0042H44.4461V48.8273H19.6252V51.0042Z" fill="#9270CB"/>
</svg>
