<svg width="64" height="64" viewBox="0 0 64 64" fill="none" xmlns="http://www.w3.org/2000/svg">
<rect width="64" height="64" rx="10.6667" fill="white" fill-opacity="0.6"/>
<path d="M50.7325 30.447L49.5381 18.9845V18.9758C49.4131 15.4927 40.4468 13.6133 32.0006 13.6133C23.5543 13.6133 14.5818 15.4933 14.4606 18.9764V18.9852L13.2631 30.4483C13.1911 31.1441 13.3491 31.8444 13.7129 32.442C14.0767 33.0396 14.6262 33.5015 15.2775 33.757C16.918 34.3925 18.5939 34.9325 20.2968 35.3745C19.842 37.1575 19.8007 39.0208 20.176 40.8222C20.5512 42.6236 21.3332 44.3154 22.4621 45.7685C23.591 47.2215 25.0371 48.3974 26.6899 49.2063C28.3426 50.0151 30.1583 50.4356 31.9984 50.4356C33.8385 50.4356 35.6542 50.0151 37.3069 49.2063C38.9597 48.3974 40.4058 47.2215 41.5347 45.7685C42.6636 44.3154 43.4456 42.6236 43.8208 40.8222C44.1961 39.0208 44.1548 37.1575 43.7 35.3745C45.4046 34.9302 47.0825 34.3891 48.7256 33.7539C49.375 33.497 49.9225 33.0348 50.2848 32.4378C50.6471 31.8408 50.8043 31.1417 50.7325 30.447ZM31.9981 14.8633C42.0925 14.8633 48.2912 17.3008 48.2912 19.047C48.2912 19.7089 47.4006 20.4689 45.7475 21.1589C43.4531 19.0733 38.0425 17.6933 31.9981 17.6933C25.9537 17.6933 20.5431 19.0733 18.2481 21.1589C16.595 20.4714 15.7043 19.7089 15.7043 19.047C15.705 17.3002 21.9037 14.8633 31.9981 14.8633ZM44.3775 21.6564C41.5606 22.5533 37.3212 23.2308 31.9981 23.2308C26.675 23.2308 22.4356 22.5533 19.6187 21.6564C21.9312 20.0314 26.76 18.9433 31.9981 18.9433C37.2362 18.9433 42.0681 20.0302 44.3775 21.6564ZM31.9981 49.1358C29.8566 49.1359 27.7631 48.5009 25.9825 47.3112C24.2019 46.1215 22.8141 44.4304 21.9946 42.4519C21.1752 40.4734 20.9608 38.2963 21.3788 36.1959C21.7967 34.0956 22.8281 32.1664 24.3426 30.6523C25.857 29.1382 27.7865 28.1072 29.8869 27.6897C31.9874 27.2723 34.1644 27.4871 36.1427 28.307C38.1211 29.1269 39.8118 30.5151 41.0012 32.296C42.1905 34.0769 42.825 36.1705 42.8243 38.312C42.8204 41.1819 41.6784 43.933 39.6489 45.9621C37.6193 47.9911 34.8679 49.1325 31.9981 49.1358ZM43.3325 34.182C42.4888 31.853 40.9482 29.8404 38.9202 28.418C36.8922 26.9956 34.4752 26.2325 31.9981 26.2325C29.521 26.2325 27.104 26.9956 25.076 28.418C23.0479 29.8404 21.5073 31.853 20.6637 34.182C18.9899 33.7483 17.3428 33.2176 15.7306 32.5927C15.3343 32.4368 15.0001 32.1554 14.779 31.7914C14.558 31.4275 14.4624 31.0011 14.5068 30.5777L15.5043 20.9995C16.2892 21.6296 17.1745 22.1231 18.1231 22.4595C18.1518 22.4733 18.1815 22.485 18.2118 22.4945C21.6306 23.7983 26.9087 24.4808 31.9981 24.4808C37.0875 24.4808 42.3693 23.7977 45.79 22.4927C45.8234 22.483 45.8558 22.4702 45.8868 22.4545C46.8304 22.1186 47.7109 21.6267 48.4918 20.9995L49.4887 30.5777C49.5338 31.0002 49.4394 31.4259 49.2199 31.7897C49.0004 32.1535 48.6679 32.4355 48.2731 32.5927C46.6582 33.2172 45.0086 33.7479 43.3325 34.182Z" fill="#9270CB"/>
<path d="M38.749 42.6752C38.6797 42.1863 38.4931 41.7214 38.2053 41.3201C37.9174 40.9189 37.5368 40.5932 37.0959 40.3708C36.8254 40.2153 36.6242 39.9625 36.5334 39.664C36.1763 38.7626 35.5484 37.9941 34.7363 37.4644C33.9243 36.9348 32.9679 36.6699 31.999 36.7064C31.0305 36.6711 30.0749 36.9368 29.2637 37.467C28.4524 37.9972 27.8254 38.7658 27.469 39.6671C27.3767 39.9659 27.1743 40.2186 26.9028 40.3739C26.5234 40.5635 26.1879 40.8305 25.9178 41.1576C25.6478 41.4847 25.4493 41.8647 25.335 42.2732C25.2207 42.6816 25.1932 43.1095 25.2543 43.5292C25.3154 43.949 25.4637 44.3512 25.6897 44.7102C26.0528 45.2635 26.5883 45.6815 27.2132 45.8996C27.838 46.1177 28.5174 46.1236 29.1459 45.9164C31.0117 45.3404 33.0082 45.3425 34.8728 45.9227C35.1763 46.0172 35.4924 46.0653 35.8103 46.0652C36.3052 46.0707 36.7935 45.9507 37.2295 45.7164C37.6655 45.482 38.0349 45.141 38.3034 44.7252C38.6864 44.1149 38.8442 43.3901 38.7497 42.6758L38.749 42.6752ZM37.2459 44.0583C37.0326 44.3744 36.7211 44.6114 36.3596 44.7326C35.9981 44.8539 35.6066 44.8526 35.2459 44.729C34.1947 44.4019 33.1 44.2356 31.999 44.2358H31.8359C30.7987 44.2515 29.769 44.4148 28.7778 44.7208C28.4127 44.8474 28.0161 44.8501 27.6494 44.7286C27.2826 44.607 26.9662 44.3679 26.749 44.0483C26.6146 43.8359 26.5266 43.5975 26.4906 43.3487C26.4546 43.0999 26.4714 42.8463 26.5401 42.6045C26.6087 42.3627 26.7276 42.138 26.889 41.9453C27.0504 41.7525 27.2506 41.596 27.4765 41.4858C28.032 41.1839 28.451 40.681 28.6478 40.0802C28.9244 39.4276 29.3933 38.8747 29.992 38.4953C30.5907 38.1159 31.2908 37.9279 31.999 37.9564C32.7063 37.9284 33.4054 38.1161 34.0035 38.4946C34.6016 38.8731 35.0704 39.4246 35.3478 40.0758C35.5439 40.677 35.9634 41.18 36.5197 41.4808C36.7466 41.592 36.9476 41.7498 37.1093 41.944C37.2711 42.1382 37.39 42.3643 37.4583 42.6076C37.5267 42.8509 37.5428 43.1059 37.5058 43.3559C37.4688 43.6059 37.3793 43.8453 37.2434 44.0583H37.2459Z" fill="#9270CB"/>
<path d="M25.8626 39.9317C26.166 39.8467 26.4437 39.6882 26.6711 39.4701C26.8985 39.2521 27.0686 38.9813 27.1663 38.6817C27.3869 38.0507 27.4154 37.3683 27.2482 36.7211C26.8801 35.1967 25.6901 34.2211 24.5482 34.4967C24.2448 34.5817 23.9671 34.7402 23.7396 34.9583C23.5122 35.1763 23.3421 35.4472 23.2444 35.7467C23.034 36.3797 23.0055 37.059 23.1622 37.7074C23.3189 38.3558 23.6544 38.9472 24.1307 39.4142C24.4939 39.7629 24.9742 39.9635 25.4776 39.9767C25.6072 39.977 25.7365 39.9619 25.8626 39.9317ZM24.9707 38.4886C24.6804 38.19 24.4756 37.8189 24.3777 37.4141C24.2799 37.0093 24.2925 36.5856 24.4144 36.1873C24.4613 36.0623 24.5957 35.7705 24.8419 35.7111C24.8722 35.7038 24.9033 35.7002 24.9344 35.7005C25.3207 35.7005 25.8413 36.2192 26.0332 37.013C26.1403 37.4168 26.1275 37.8431 25.9963 38.2398C25.9494 38.3648 25.8151 38.6567 25.5682 38.7161C25.4579 38.725 25.3471 38.7092 25.2437 38.6699C25.1404 38.6305 25.0471 38.5686 24.9707 38.4886Z" fill="#9270CB"/>
<path d="M28.4116 35.519C28.7749 35.8675 29.2552 36.0681 29.7585 36.0815C29.8878 36.0816 30.0166 36.0663 30.1422 36.0358C30.4458 35.951 30.7237 35.7925 30.9512 35.5744C31.1788 35.3564 31.3489 35.0855 31.4466 34.7858C31.6678 34.1547 31.6965 33.4721 31.5291 32.8246C31.1604 31.3008 29.9791 30.3246 28.8297 30.6002C27.6804 30.8758 27.0754 32.2877 27.4435 33.8115C27.5899 34.464 27.9269 35.0583 28.4116 35.519ZM29.1235 31.8158C29.1538 31.8085 29.1848 31.8049 29.216 31.8052C29.6022 31.8052 30.1229 32.324 30.3154 33.1177C30.4218 33.5215 30.4085 33.9475 30.2772 34.344C30.231 34.469 30.096 34.7602 29.8497 34.8202C29.7393 34.8294 29.6281 34.8137 29.5246 34.7741C29.421 34.7345 29.3277 34.6721 29.2516 34.5915C28.954 34.2984 28.7479 33.9251 28.6585 33.5171C28.4504 32.6583 28.7322 31.9102 29.1235 31.8158Z" fill="#9270CB"/>
<path d="M37.7205 35.0284C37.2443 35.4954 36.9087 36.0868 36.752 36.7352C36.5953 37.3836 36.6238 38.0629 36.8343 38.6959C36.932 38.9954 37.1022 39.2661 37.3296 39.4842C37.557 39.7022 37.8347 39.8608 38.138 39.9459C38.2643 39.9763 38.3938 39.9916 38.5237 39.9915C39.0267 39.978 39.5067 39.7774 39.8699 39.429C40.3463 38.9619 40.6819 38.3704 40.8386 37.7219C40.9953 37.0734 40.9667 36.3939 40.7562 35.7609C40.6688 35.4557 40.502 35.1791 40.2729 34.9594C40.0438 34.7397 39.7605 34.5846 39.4519 34.5101C39.1433 34.4356 38.8205 34.4442 38.5163 34.5352C38.2122 34.6261 37.9376 34.7967 37.7205 35.0284ZM39.6249 37.429C39.5357 37.8371 39.3296 38.2104 39.0318 38.5034C38.9551 38.5832 38.8617 38.645 38.7583 38.6845C38.6549 38.7239 38.544 38.74 38.4337 38.7315C38.1874 38.669 38.053 38.379 38.0062 38.2559C37.875 37.8592 37.8622 37.4329 37.9693 37.029C38.0585 36.6209 38.2646 36.2476 38.5624 35.9546C38.6985 35.8199 38.8764 35.7355 39.0668 35.7153C39.0983 35.7151 39.1298 35.7186 39.1605 35.7259C39.4068 35.7884 39.5412 36.0784 39.588 36.2021C39.7192 36.5988 39.732 37.0251 39.6249 37.429Z" fill="#9270CB"/>
<path d="M33.8534 36.0508C33.9817 36.0821 34.1132 36.0979 34.2453 36.0977C35.2584 36.0977 36.2265 35.1771 36.5521 33.8265C36.9203 32.3027 36.3115 30.8921 35.1659 30.6152C34.0203 30.3383 32.8353 31.3152 32.4665 32.839C32.0984 34.3633 32.7078 35.774 33.8534 36.0508ZM33.6809 33.1327C33.8896 32.2733 34.4878 31.7321 34.8728 31.8302C35.2578 31.9283 35.5453 32.6733 35.3378 33.5333C35.1303 34.3933 34.5378 34.934 34.1465 34.8358C33.7553 34.7377 33.4734 33.9927 33.6809 33.1327Z" fill="#9270CB"/>
</svg>
