<svg width="51" height="37" viewBox="0 0 51 37" fill="none" xmlns="http://www.w3.org/2000/svg">
<rect x="0.75" y="1.32031" width="49.5" height="34.5" rx="5.25" fill="white"/>
<rect x="0.75" y="1.32031" width="49.5" height="34.5" rx="5.25" stroke="#F2F4F7" stroke-width="1.5"/>
<path fill-rule="evenodd" clip-rule="evenodd" d="M14.1732 13.085C13.7451 13.6129 13.0602 14.0292 12.3753 13.9697C12.2897 13.256 12.625 12.4977 13.0174 12.0294C13.4455 11.4866 14.1946 11.1001 14.801 11.0703C14.8724 11.8138 14.5941 12.5423 14.1732 13.085ZM14.7945 14.1108C14.1911 14.0746 13.6405 14.2999 13.1958 14.4819C12.9096 14.599 12.6672 14.6981 12.4829 14.6981C12.276 14.6981 12.0236 14.5937 11.7403 14.4764C11.369 14.3227 10.9446 14.147 10.4995 14.1554C9.47922 14.1703 8.53033 14.7725 8.0095 15.7315C6.93932 17.6496 7.73126 20.4896 8.76577 22.0508C9.27232 22.824 9.87875 23.6715 10.6778 23.6418C11.0294 23.6279 11.2822 23.5161 11.544 23.4004C11.8452 23.2672 12.1582 23.1288 12.647 23.1288C13.1187 23.1288 13.418 23.2636 13.7054 23.393C13.9785 23.516 14.2409 23.6341 14.6304 23.6269C15.458 23.612 15.9788 22.8537 16.4853 22.0805C17.032 21.2507 17.2722 20.4408 17.3087 20.3179L17.313 20.3037C17.3121 20.3028 17.3053 20.2996 17.2934 20.2939C17.1107 20.2067 15.7139 19.5404 15.7005 17.7537C15.6871 16.254 16.8084 15.4941 16.9849 15.3745C16.9957 15.3673 17.0029 15.3623 17.0062 15.3598C16.2927 14.2595 15.1797 14.1405 14.7945 14.1108ZM20.5239 23.5454V11.9551H24.6976C26.8523 11.9551 28.3577 13.5014 28.3577 15.7615C28.3577 18.0216 26.8237 19.5828 24.6406 19.5828H22.2505V23.5454H20.5239ZM22.2495 13.4719H24.2401C25.7383 13.4719 26.5945 14.3046 26.5945 15.7692C26.5945 17.2338 25.7383 18.0738 24.2329 18.0738H22.2495V13.4719ZM34.0581 22.155C33.6015 23.062 32.5955 23.6345 31.511 23.6345C29.9058 23.6345 28.7856 22.6383 28.7856 21.1365C28.7856 19.6496 29.8701 18.7947 31.8749 18.6683L34.0295 18.5344V17.8951C34.0295 16.9509 33.4374 16.4379 32.3815 16.4379C31.511 16.4379 30.8761 16.9063 30.7476 17.62H29.1923C29.2423 16.1183 30.5978 15.0254 32.4314 15.0254C34.4077 15.0254 35.6919 16.1034 35.6919 17.7761V23.5453H34.0938V22.155H34.0581ZM31.9741 22.2594C31.0538 22.2594 30.4688 21.7985 30.4688 21.0922C30.4688 20.3636 31.0324 19.9399 32.1097 19.873L34.0289 19.7466V20.4008C34.0289 21.4862 33.1442 22.2594 31.9741 22.2594ZM40.9921 23.9986C40.3001 26.0282 39.5082 26.6973 37.8244 26.6973C37.696 26.6973 37.2679 26.6824 37.168 26.6527V25.2624C37.275 25.2773 37.539 25.2922 37.6746 25.2922C38.438 25.2922 38.866 24.9576 39.13 24.0878L39.287 23.5748L36.3618 15.1367H38.1669L40.2002 21.9838H40.2359L42.2692 15.1367H44.0243L40.9921 23.9986Z" fill="black"/>
</svg>
