<svg width="51" height="37" viewBox="0 0 51 37" fill="none" xmlns="http://www.w3.org/2000/svg">
<rect x="0.75" y="1.32031" width="49.5" height="34.5" rx="5.25" fill="white"/>
<rect x="0.75" y="1.32031" width="49.5" height="34.5" rx="5.25" stroke="#F2F4F7" stroke-width="1.5"/>
<path fill-rule="evenodd" clip-rule="evenodd" d="M24.0861 23.862V19.4601H26.358C27.289 19.4601 28.0748 19.1481 28.7154 18.5329L28.8691 18.3769C30.0392 17.1031 29.9624 15.1188 28.7154 13.9403C28.0918 13.3164 27.2377 12.9784 26.358 12.9958H22.7109V23.862H24.0861ZM24.0864 18.1257V14.3303H26.3929C26.8884 14.3303 27.3582 14.521 27.7084 14.8676C28.4516 15.5955 28.4687 16.8086 27.7512 17.5625C27.4009 17.9351 26.9054 18.1431 26.3929 18.1257H24.0864ZM35.2834 17.0083C34.694 16.4623 33.8912 16.1851 32.8748 16.1851C31.568 16.1851 30.5857 16.6703 29.9366 17.6322L31.1495 18.4034C31.5936 17.7448 32.2 17.4155 32.9687 17.4155C33.4556 17.4155 33.9253 17.5975 34.2926 17.9268C34.6513 18.2387 34.8563 18.6893 34.8563 19.1659V19.4865C34.3268 19.1919 33.6605 19.0359 32.8406 19.0359C31.884 19.0359 31.1153 19.2612 30.543 19.7205C29.9708 20.1798 29.6804 20.7863 29.6804 21.5576C29.6633 22.2594 29.9622 22.9267 30.4918 23.3773C31.0299 23.8625 31.7132 24.1052 32.516 24.1052C33.4641 24.1052 34.2157 23.6806 34.788 22.8314H34.8478V23.8625H36.1631V19.2786C36.1631 18.3167 35.8727 17.5542 35.2834 17.0083ZM31.5504 22.4934C31.2685 22.2854 31.0977 21.9475 31.0977 21.5835C31.0977 21.1763 31.2856 20.8383 31.6529 20.5697C32.0288 20.3011 32.4986 20.1624 33.0539 20.1624C33.8227 20.1538 34.4207 20.3271 34.8478 20.6737C34.8478 21.2629 34.6172 21.7742 34.1644 22.2074C33.7544 22.6234 33.1991 22.8573 32.6182 22.8573C32.2338 22.866 31.8579 22.736 31.5504 22.4934ZM39.1192 27.1291L43.7143 16.4275H42.2196L40.0928 21.7653H40.0672L37.8892 16.4275H36.3945L39.4095 23.3857L37.7013 27.1291H39.1192Z" fill="#3C4043"/>
<path d="M19.3404 18.5076C19.3404 18.083 19.3062 17.6584 19.2379 17.2424H13.4385V19.6427H16.761C16.6243 20.4139 16.1802 21.1072 15.5311 21.5404V23.1002H17.5126C18.6742 22.017 19.3404 20.4139 19.3404 18.5076Z" fill="#4285F4"/>
<path d="M13.4387 24.6082C15.0957 24.6082 16.4964 24.0536 17.5128 23.1004L15.5313 21.5406C14.9761 21.9219 14.2672 22.1385 13.4387 22.1385C11.833 22.1385 10.475 21.038 9.98811 19.5649H7.94678V21.1767C8.98879 23.2824 11.1155 24.6082 13.4387 24.6082Z" fill="#34A853"/>
<path d="M9.98769 19.5643C9.73142 18.7931 9.73142 17.9525 9.98769 17.1727V15.5696H7.94604C7.06616 17.3286 7.06616 19.4083 7.94604 21.1674L9.98769 19.5643Z" fill="#FBBC04"/>
<path d="M13.4387 14.5994C14.3185 14.5821 15.164 14.92 15.7961 15.5352L17.5555 13.7502C16.4367 12.693 14.9676 12.1124 13.4387 12.1298C11.1155 12.1298 8.98879 13.4642 7.94678 15.5699L9.98811 17.1816C10.475 15.6999 11.833 14.5994 13.4387 14.5994Z" fill="#EA4335"/>
</svg>
