<svg width="53" height="37" viewBox="0 0 53 37" fill="none" xmlns="http://www.w3.org/2000/svg">
<rect x="1.3125" y="1.13281" width="50.625" height="34.875" rx="6.1875" fill="white"/>
<rect x="1.3125" y="1.13281" width="50.625" height="34.875" rx="6.1875" stroke="#F2F4F7" stroke-width="1.125"/>
<path fill-rule="evenodd" clip-rule="evenodd" d="M33.1156 28.2152C38.7329 28.2152 43.2866 23.7156 43.2866 18.1652C43.2866 12.6147 38.7329 8.11517 33.1156 8.11517C30.5982 8.11517 28.2943 9.01889 26.5183 10.5159C24.7422 9.01892 22.4384 8.11523 19.921 8.11523C14.3037 8.11523 9.75 12.6148 9.75 18.1652C9.75 23.7157 14.3037 28.2152 19.921 28.2152C22.4385 28.2152 24.7423 27.3115 26.5184 25.8145C28.2944 27.3115 30.5982 28.2152 33.1156 28.2152Z" fill="#ED0006"/>
<path fill-rule="evenodd" clip-rule="evenodd" d="M26.5186 25.8144C28.7055 23.9711 30.0923 21.2281 30.0923 18.1651C30.0923 15.1021 28.7055 12.3592 26.5186 10.5158C28.2946 9.01881 30.5984 8.11511 33.1158 8.11511C38.7332 8.11511 43.2869 12.6147 43.2869 18.1651C43.2869 23.7156 38.7332 28.2151 33.1158 28.2151C30.5984 28.2151 28.2946 27.3114 26.5186 25.8144Z" fill="#F9A000"/>
<path fill-rule="evenodd" clip-rule="evenodd" d="M26.5186 25.8145C28.7056 23.9712 30.0923 21.2282 30.0923 18.1652C30.0923 15.1022 28.7056 12.3593 26.5186 10.5159C24.3316 12.3593 22.9448 15.1022 22.9448 18.1652C22.9448 21.2282 24.3316 23.9712 26.5186 25.8145Z" fill="#FF5E00"/>
</svg>
