<svg width="52" height="37" viewBox="0 0 52 37" fill="none" xmlns="http://www.w3.org/2000/svg">
<rect x="0.5625" y="1.13281" width="50.625" height="34.875" rx="6.1875" fill="white"/>
<rect x="0.5625" y="1.13281" width="50.625" height="34.875" rx="6.1875" stroke="#F2F4F7" stroke-width="1.125"/>
<path fill-rule="evenodd" clip-rule="evenodd" d="M16.1261 24.3576H13.0364L10.7196 15.2588C10.6096 14.8402 10.3762 14.4702 10.0327 14.2958C9.17556 13.8575 8.23106 13.5088 7.20068 13.3328V12.9825H12.1778C12.8647 12.9825 13.3799 13.5088 13.4658 14.1199L14.6679 20.6832L17.756 12.9825H20.7597L16.1261 24.3576ZM22.4771 24.3576H19.5592L21.9619 12.9825H24.8798L22.4771 24.3576ZM28.6548 16.1335C28.7407 15.5209 29.2559 15.1706 29.8569 15.1706C30.8014 15.0826 31.8303 15.2585 32.6889 15.6953L33.2041 13.2462C32.3455 12.8959 31.401 12.72 30.5438 12.72C27.7118 12.72 25.6511 14.2956 25.6511 16.4823C25.6511 18.1459 27.1108 19.0194 28.1411 19.5456C29.2559 20.0703 29.6852 20.4206 29.5993 20.9453C29.5993 21.7323 28.7407 22.0826 27.8836 22.0826C26.8532 22.0826 25.8228 21.8203 24.8798 21.382L24.3646 23.8327C25.395 24.2694 26.5097 24.4453 27.5401 24.4453C30.7156 24.5317 32.6889 22.9576 32.6889 20.595C32.6889 17.6197 28.6548 17.4453 28.6548 16.1335ZM42.901 24.3576L40.5841 12.9825H38.0956C37.5804 12.9825 37.0652 13.3328 36.8935 13.8575L32.6033 24.3576H35.607L36.2066 22.6955H39.8972L40.2407 24.3576H42.901ZM38.5247 16.0455L39.3818 20.3326H36.9791L38.5247 16.0455Z" fill="#172B85"/>
</svg>
