<svg width="151" height="151" viewBox="0 0 151 151" fill="none" xmlns="http://www.w3.org/2000/svg">
<rect x="1" y="1" width="149" height="149" rx="74.5" fill="#D3BBFB" fill-opacity="0.2"/>
<rect x="1" y="1" width="149" height="149" rx="74.5" stroke="url(#paint0_linear_7088_174863)" stroke-width="2"/>
<path d="M63.2314 56.3785C63.4274 58.0621 63.1844 59.7675 62.5259 61.331C61.6792 63.2933 60.3387 64.9908 58.371 65.2244C56.4033 65.458 54.5846 64.4847 53.048 62.974C51.9192 61.8527 50.218 59.6879 50.0299 57.5621C49.8652 55.7633 50.3905 54.7744 51.3782 53.3883C51.9334 52.6751 52.6278 52.0805 53.4199 51.6403C54.212 51.2001 55.0854 50.9233 55.9878 50.8265C57.4388 50.5964 58.9258 50.7997 60.2603 51.4105C62.6592 52.3683 63.0198 54.8289 63.2314 56.3785Z" fill="#60478B"/>
<path d="M81.0692 50.2493C80.8317 51.928 80.1591 53.5165 79.1172 54.8591C77.8002 56.5489 76.0755 57.8493 74.0999 57.6079C72.1244 57.3665 70.6271 55.9415 69.5296 54.0882C68.7456 52.7177 67.6324 50.1948 67.9617 48.0923C68.2596 46.3169 69.02 45.4837 70.3135 44.3936C71.041 43.8399 71.8736 43.438 72.7614 43.2119C73.6491 42.9857 74.5737 42.94 75.4797 43.0776C76.9421 43.2254 78.3278 43.7998 79.4621 44.7284C81.5396 46.2546 81.2652 48.6997 81.0692 50.2493Z" fill="#60478B"/>
<path d="M87.3724 55.7546C86.629 57.277 86.2916 58.9635 86.3925 60.6526C86.5336 62.794 87.2313 64.8264 89.003 65.7296C90.7747 66.6329 92.813 66.2825 94.765 65.3559C96.2074 64.6706 98.5357 63.1911 99.4686 61.2522C100.253 59.6091 100.057 58.5034 99.5941 56.8682C99.3059 56.0127 98.848 55.2232 98.2474 54.5465C97.6469 53.8697 96.9159 53.3194 96.0977 52.928C94.8049 52.2352 93.3349 51.9372 91.8722 52.0714C89.246 52.1804 88.0936 54.3608 87.3724 55.7546Z" fill="#60478B"/>
<path d="M56.0385 99.8175C54.7685 93.44 54.4706 90.7769 54.8469 86.6343C55.0989 82.8824 56.0422 79.2084 57.6299 75.7949C58.9144 72.8282 61.1093 70.3401 63.9014 68.6855C66.9088 66.872 70.4121 66.0389 73.9202 66.3027C78.083 66.4662 82.5436 67.2994 85.5696 69.3006C88.5152 71.1902 90.78 73.9607 92.0372 77.2121C94.9534 84.4929 92.7505 96.1498 91.5903 100.425C90.6339 106.865 86.1733 107.262 84.6994 107.16C81.0698 106.927 79.0786 104.98 78.569 103.945C78.0594 102.909 77.9889 101.523 78.1143 99.763C78.2398 98.0031 78.3887 96.6482 78.4279 95.8306C78.6707 92.9811 78.6865 90.117 78.4749 87.265C78.1614 82.5929 76.3504 79.9297 74.1946 79.8441C72.0388 79.7584 69.6791 82.1256 69.146 86.5953C68.6768 90.7331 68.6322 94.9076 69.0127 99.0543C69.193 100.744 69.2793 102.948 68.3464 104.17C66.4963 106.608 63.5016 106.203 62.0043 106.031C60.5004 105.859 59.1023 105.177 58.0454 104.1C56.9461 102.914 56.2448 101.417 56.0385 99.8175Z" fill="#60478B"/>
<defs>
<linearGradient id="paint0_linear_7088_174863" x1="30.5" y1="14.5" x2="125.5" y2="134" gradientUnits="userSpaceOnUse">
<stop stop-color="#E4D7F9"/>
<stop offset="1" stop-color="white"/>
</linearGradient>
</defs>
</svg>
